<?xml version="1.0" encoding="utf-8" standalone="no"?>
<!DOCTYPE svg PUBLIC "-//W3C//DTD SVG 1.1//EN"
  "http://www.w3.org/Graphics/SVG/1.1/DTD/svg11.dtd">
<!-- Created with matplotlib (http://matplotlib.org/) -->
<svg height="345pt" version="1.1" viewBox="0 0 460 345" width="460pt" xmlns="http://www.w3.org/2000/svg" xmlns:xlink="http://www.w3.org/1999/xlink">
 <defs>
  <style type="text/css">
*{stroke-linecap:butt;stroke-linejoin:round;}
  </style>
 </defs>
 <g id="figure_1">
  <g id="patch_1">
   <path d="M 0 345.6 
L 460.8 345.6 
L 460.8 0 
L 0 0 
z
" style="fill:#ffffff;"/>
  </g>
  <g id="axes_1">
   <g id="patch_2">
    <path d="M 57.6 162.432 
L 219.927273 162.432 
L 219.927273 41.472 
L 57.6 41.472 
z
" style="fill:#ffffff;"/>
   </g>
   <g id="matplotlib.axis_1">
    <g id="xtick_1">
     <g id="line2d_1">
      <defs>
       <path d="M 0 0 
L 0 3.5 
" id="m2cc6dac27e" style="stroke:#000000;stroke-width:0.8;"/>
      </defs>
      <g>
       <use style="stroke:#000000;stroke-width:0.8;" x="57.6" xlink:href="#m2cc6dac27e" y="162.432"/>
      </g>
     </g>
     <g id="text_1">
      <!-- 0.0 -->
      <defs>
       <path d="M 31.78125 66.40625 
Q 24.171875 66.40625 20.328125 58.90625 
Q 16.5 51.421875 16.5 36.375 
Q 16.5 21.390625 20.328125 13.890625 
Q 24.171875 6.390625 31.78125 6.390625 
Q 39.453125 6.390625 43.28125 13.890625 
Q 47.125 21.390625 47.125 36.375 
Q 47.125 51.421875 43.28125 58.90625 
Q 39.453125 66.40625 31.78125 66.40625 
z
M 31.78125 74.21875 
Q 44.046875 74.21875 50.515625 64.515625 
Q 56.984375 54.828125 56.984375 36.375 
Q 56.984375 17.96875 50.515625 8.265625 
Q 44.046875 -1.421875 31.78125 -1.421875 
Q 19.53125 -1.421875 13.0625 8.265625 
Q 6.59375 17.96875 6.59375 36.375 
Q 6.59375 54.828125 13.0625 64.515625 
Q 19.53125 74.21875 31.78125 74.21875 
z
" id="DejaVuSans-30"/>
       <path d="M 10.6875 12.40625 
L 21 12.40625 
L 21 0 
L 10.6875 0 
z
" id="DejaVuSans-2e"/>
      </defs>
      <g transform="translate(49.648438 177.030437)scale(0.1 -0.1)">
       <use xlink:href="#DejaVuSans-30"/>
       <use x="63.623047" xlink:href="#DejaVuSans-2e"/>
       <use x="95.410156" xlink:href="#DejaVuSans-30"/>
      </g>
     </g>
    </g>
    <g id="xtick_2">
     <g id="line2d_2">
      <g>
       <use style="stroke:#000000;stroke-width:0.8;" x="90.065455" xlink:href="#m2cc6dac27e" y="162.432"/>
      </g>
     </g>
     <g id="text_2">
      <!-- 0.2 -->
      <defs>
       <path d="M 19.1875 8.296875 
L 53.609375 8.296875 
L 53.609375 0 
L 7.328125 0 
L 7.328125 8.296875 
Q 12.9375 14.109375 22.625 23.890625 
Q 32.328125 33.6875 34.8125 36.53125 
Q 39.546875 41.84375 41.421875 45.53125 
Q 43.3125 49.21875 43.3125 52.78125 
Q 43.3125 58.59375 39.234375 62.25 
Q 35.15625 65.921875 28.609375 65.921875 
Q 23.96875 65.921875 18.8125 64.3125 
Q 13.671875 62.703125 7.8125 59.421875 
L 7.8125 69.390625 
Q 13.765625 71.78125 18.9375 73 
Q 24.125 74.21875 28.421875 74.21875 
Q 39.75 74.21875 46.484375 68.546875 
Q 53.21875 62.890625 53.21875 53.421875 
Q 53.21875 48.921875 51.53125 44.890625 
Q 49.859375 40.875 45.40625 35.40625 
Q 44.1875 33.984375 37.640625 27.21875 
Q 31.109375 20.453125 19.1875 8.296875 
z
" id="DejaVuSans-32"/>
      </defs>
      <g transform="translate(82.113892 177.030437)scale(0.1 -0.1)">
       <use xlink:href="#DejaVuSans-30"/>
       <use x="63.623047" xlink:href="#DejaVuSans-2e"/>
       <use x="95.410156" xlink:href="#DejaVuSans-32"/>
      </g>
     </g>
    </g>
    <g id="xtick_3">
     <g id="line2d_3">
      <g>
       <use style="stroke:#000000;stroke-width:0.8;" x="122.530909" xlink:href="#m2cc6dac27e" y="162.432"/>
      </g>
     </g>
     <g id="text_3">
      <!-- 0.4 -->
      <defs>
       <path d="M 37.796875 64.3125 
L 12.890625 25.390625 
L 37.796875 25.390625 
z
M 35.203125 72.90625 
L 47.609375 72.90625 
L 47.609375 25.390625 
L 58.015625 25.390625 
L 58.015625 17.1875 
L 47.609375 17.1875 
L 47.609375 0 
L 37.796875 0 
L 37.796875 17.1875 
L 4.890625 17.1875 
L 4.890625 26.703125 
z
" id="DejaVuSans-34"/>
      </defs>
      <g transform="translate(114.579347 177.030437)scale(0.1 -0.1)">
       <use xlink:href="#DejaVuSans-30"/>
       <use x="63.623047" xlink:href="#DejaVuSans-2e"/>
       <use x="95.410156" xlink:href="#DejaVuSans-34"/>
      </g>
     </g>
    </g>
    <g id="xtick_4">
     <g id="line2d_4">
      <g>
       <use style="stroke:#000000;stroke-width:0.8;" x="154.996364" xlink:href="#m2cc6dac27e" y="162.432"/>
      </g>
     </g>
     <g id="text_4">
      <!-- 0.6 -->
      <defs>
       <path d="M 33.015625 40.375 
Q 26.375 40.375 22.484375 35.828125 
Q 18.609375 31.296875 18.609375 23.390625 
Q 18.609375 15.53125 22.484375 10.953125 
Q 26.375 6.390625 33.015625 6.390625 
Q 39.65625 6.390625 43.53125 10.953125 
Q 47.40625 15.53125 47.40625 23.390625 
Q 47.40625 31.296875 43.53125 35.828125 
Q 39.65625 40.375 33.015625 40.375 
z
M 52.59375 71.296875 
L 52.59375 62.3125 
Q 48.875 64.0625 45.09375 64.984375 
Q 41.3125 65.921875 37.59375 65.921875 
Q 27.828125 65.921875 22.671875 59.328125 
Q 17.53125 52.734375 16.796875 39.40625 
Q 19.671875 43.65625 24.015625 45.921875 
Q 28.375 48.1875 33.59375 48.1875 
Q 44.578125 48.1875 50.953125 41.515625 
Q 57.328125 34.859375 57.328125 23.390625 
Q 57.328125 12.15625 50.6875 5.359375 
Q 44.046875 -1.421875 33.015625 -1.421875 
Q 20.359375 -1.421875 13.671875 8.265625 
Q 6.984375 17.96875 6.984375 36.375 
Q 6.984375 53.65625 15.1875 63.9375 
Q 23.390625 74.21875 37.203125 74.21875 
Q 40.921875 74.21875 44.703125 73.484375 
Q 48.484375 72.75 52.59375 71.296875 
z
" id="DejaVuSans-36"/>
      </defs>
      <g transform="translate(147.044801 177.030437)scale(0.1 -0.1)">
       <use xlink:href="#DejaVuSans-30"/>
       <use x="63.623047" xlink:href="#DejaVuSans-2e"/>
       <use x="95.410156" xlink:href="#DejaVuSans-36"/>
      </g>
     </g>
    </g>
    <g id="xtick_5">
     <g id="line2d_5">
      <g>
       <use style="stroke:#000000;stroke-width:0.8;" x="187.461818" xlink:href="#m2cc6dac27e" y="162.432"/>
      </g>
     </g>
     <g id="text_5">
      <!-- 0.8 -->
      <defs>
       <path d="M 31.78125 34.625 
Q 24.75 34.625 20.71875 30.859375 
Q 16.703125 27.09375 16.703125 20.515625 
Q 16.703125 13.921875 20.71875 10.15625 
Q 24.75 6.390625 31.78125 6.390625 
Q 38.8125 6.390625 42.859375 10.171875 
Q 46.921875 13.96875 46.921875 20.515625 
Q 46.921875 27.09375 42.890625 30.859375 
Q 38.875 34.625 31.78125 34.625 
z
M 21.921875 38.8125 
Q 15.578125 40.375 12.03125 44.71875 
Q 8.5 49.078125 8.5 55.328125 
Q 8.5 64.0625 14.71875 69.140625 
Q 20.953125 74.21875 31.78125 74.21875 
Q 42.671875 74.21875 48.875 69.140625 
Q 55.078125 64.0625 55.078125 55.328125 
Q 55.078125 49.078125 51.53125 44.71875 
Q 48 40.375 41.703125 38.8125 
Q 48.828125 37.15625 52.796875 32.3125 
Q 56.78125 27.484375 56.78125 20.515625 
Q 56.78125 9.90625 50.3125 4.234375 
Q 43.84375 -1.421875 31.78125 -1.421875 
Q 19.734375 -1.421875 13.25 4.234375 
Q 6.78125 9.90625 6.78125 20.515625 
Q 6.78125 27.484375 10.78125 32.3125 
Q 14.796875 37.15625 21.921875 38.8125 
z
M 18.3125 54.390625 
Q 18.3125 48.734375 21.84375 45.5625 
Q 25.390625 42.390625 31.78125 42.390625 
Q 38.140625 42.390625 41.71875 45.5625 
Q 45.3125 48.734375 45.3125 54.390625 
Q 45.3125 60.0625 41.71875 63.234375 
Q 38.140625 66.40625 31.78125 66.40625 
Q 25.390625 66.40625 21.84375 63.234375 
Q 18.3125 60.0625 18.3125 54.390625 
z
" id="DejaVuSans-38"/>
      </defs>
      <g transform="translate(179.510256 177.030437)scale(0.1 -0.1)">
       <use xlink:href="#DejaVuSans-30"/>
       <use x="63.623047" xlink:href="#DejaVuSans-2e"/>
       <use x="95.410156" xlink:href="#DejaVuSans-38"/>
      </g>
     </g>
    </g>
    <g id="xtick_6">
     <g id="line2d_6">
      <g>
       <use style="stroke:#000000;stroke-width:0.8;" x="219.927273" xlink:href="#m2cc6dac27e" y="162.432"/>
      </g>
     </g>
     <g id="text_6">
      <!-- 1.0 -->
      <defs>
       <path d="M 12.40625 8.296875 
L 28.515625 8.296875 
L 28.515625 63.921875 
L 10.984375 60.40625 
L 10.984375 69.390625 
L 28.421875 72.90625 
L 38.28125 72.90625 
L 38.28125 8.296875 
L 54.390625 8.296875 
L 54.390625 0 
L 12.40625 0 
z
" id="DejaVuSans-31"/>
      </defs>
      <g transform="translate(211.97571 177.030437)scale(0.1 -0.1)">
       <use xlink:href="#DejaVuSans-31"/>
       <use x="63.623047" xlink:href="#DejaVuSans-2e"/>
       <use x="95.410156" xlink:href="#DejaVuSans-30"/>
      </g>
     </g>
    </g>
   </g>
   <g id="matplotlib.axis_2">
    <g id="ytick_1">
     <g id="line2d_7">
      <defs>
       <path d="M 0 0 
L -3.5 0 
" id="mcd52baf3cf" style="stroke:#000000;stroke-width:0.8;"/>
      </defs>
      <g>
       <use style="stroke:#000000;stroke-width:0.8;" x="57.6" xlink:href="#mcd52baf3cf" y="162.432"/>
      </g>
     </g>
     <g id="text_7">
      <!-- 0.0 -->
      <g transform="translate(34.696875 166.231219)scale(0.1 -0.1)">
       <use xlink:href="#DejaVuSans-30"/>
       <use x="63.623047" xlink:href="#DejaVuSans-2e"/>
       <use x="95.410156" xlink:href="#DejaVuSans-30"/>
      </g>
     </g>
    </g>
    <g id="ytick_2">
     <g id="line2d_8">
      <g>
       <use style="stroke:#000000;stroke-width:0.8;" x="57.6" xlink:href="#mcd52baf3cf" y="138.24"/>
      </g>
     </g>
     <g id="text_8">
      <!-- 0.2 -->
      <g transform="translate(34.696875 142.039219)scale(0.1 -0.1)">
       <use xlink:href="#DejaVuSans-30"/>
       <use x="63.623047" xlink:href="#DejaVuSans-2e"/>
       <use x="95.410156" xlink:href="#DejaVuSans-32"/>
      </g>
     </g>
    </g>
    <g id="ytick_3">
     <g id="line2d_9">
      <g>
       <use style="stroke:#000000;stroke-width:0.8;" x="57.6" xlink:href="#mcd52baf3cf" y="114.048"/>
      </g>
     </g>
     <g id="text_9">
      <!-- 0.4 -->
      <g transform="translate(34.696875 117.847219)scale(0.1 -0.1)">
       <use xlink:href="#DejaVuSans-30"/>
       <use x="63.623047" xlink:href="#DejaVuSans-2e"/>
       <use x="95.410156" xlink:href="#DejaVuSans-34"/>
      </g>
     </g>
    </g>
    <g id="ytick_4">
     <g id="line2d_10">
      <g>
       <use style="stroke:#000000;stroke-width:0.8;" x="57.6" xlink:href="#mcd52baf3cf" y="89.856"/>
      </g>
     </g>
     <g id="text_10">
      <!-- 0.6 -->
      <g transform="translate(34.696875 93.655219)scale(0.1 -0.1)">
       <use xlink:href="#DejaVuSans-30"/>
       <use x="63.623047" xlink:href="#DejaVuSans-2e"/>
       <use x="95.410156" xlink:href="#DejaVuSans-36"/>
      </g>
     </g>
    </g>
    <g id="ytick_5">
     <g id="line2d_11">
      <g>
       <use style="stroke:#000000;stroke-width:0.8;" x="57.6" xlink:href="#mcd52baf3cf" y="65.664"/>
      </g>
     </g>
     <g id="text_11">
      <!-- 0.8 -->
      <g transform="translate(34.696875 69.463219)scale(0.1 -0.1)">
       <use xlink:href="#DejaVuSans-30"/>
       <use x="63.623047" xlink:href="#DejaVuSans-2e"/>
       <use x="95.410156" xlink:href="#DejaVuSans-38"/>
      </g>
     </g>
    </g>
    <g id="ytick_6">
     <g id="line2d_12">
      <g>
       <use style="stroke:#000000;stroke-width:0.8;" x="57.6" xlink:href="#mcd52baf3cf" y="41.472"/>
      </g>
     </g>
     <g id="text_12">
      <!-- 1.0 -->
      <g transform="translate(34.696875 45.271219)scale(0.1 -0.1)">
       <use xlink:href="#DejaVuSans-31"/>
       <use x="63.623047" xlink:href="#DejaVuSans-2e"/>
       <use x="95.410156" xlink:href="#DejaVuSans-30"/>
      </g>
     </g>
    </g>
   </g>
   <g id="patch_3">
    <path d="M 57.6 162.432 
L 57.6 41.472 
" style="fill:none;stroke:#000000;stroke-linecap:square;stroke-linejoin:miter;stroke-width:0.8;"/>
   </g>
   <g id="patch_4">
    <path d="M 219.927273 162.432 
L 219.927273 41.472 
" style="fill:none;stroke:#000000;stroke-linecap:square;stroke-linejoin:miter;stroke-width:0.8;"/>
   </g>
   <g id="patch_5">
    <path d="M 57.6 162.432 
L 219.927273 162.432 
" style="fill:none;stroke:#000000;stroke-linecap:square;stroke-linejoin:miter;stroke-width:0.8;"/>
   </g>
   <g id="patch_6">
    <path d="M 57.6 41.472 
L 219.927273 41.472 
" style="fill:none;stroke:#000000;stroke-linecap:square;stroke-linejoin:miter;stroke-width:0.8;"/>
   </g>
   <g id="text_13">
    <!-- Cartesian coordinates -->
    <defs>
     <path d="M 61.53125 3.125 
Q 53.171875 -1.265625 40.578125 -1.265625 
Q 24.3125 -1.265625 14.59375 9.0625 
Q 4.890625 19.390625 4.890625 36.375 
Q 4.890625 54.640625 15.828125 65.765625 
Q 26.765625 76.90625 43.609375 76.90625 
Q 54.4375 76.90625 61.53125 73.828125 
L 61.53125 63.625 
Q 53.421875 68.109375 43.703125 68.109375 
Q 31.0625 68.109375 23.09375 59.6875 
Q 15.140625 51.265625 15.140625 36.96875 
Q 15.140625 23.390625 22.5625 15.40625 
Q 29.984375 7.421875 42 7.421875 
Q 53.21875 7.421875 61.53125 12.5 
z
" id="MicrosoftYaHei-43"/>
     <path d="M 9.8125 50.25 
Q 17.875 55.28125 28.421875 55.28125 
Q 47.953125 55.28125 47.953125 34.765625 
L 47.953125 0 
L 38.484375 0 
L 38.484375 8.34375 
L 38.234375 8.34375 
Q 32.625 -1.265625 21.6875 -1.265625 
Q 13.8125 -1.265625 9.171875 2.984375 
Q 4.546875 7.234375 4.546875 14.453125 
Q 4.546875 29.59375 22.46875 32.078125 
L 38.484375 34.328125 
Q 38.484375 47.5625 27.546875 47.5625 
Q 17.828125 47.5625 9.8125 41.015625 
z
M 25.828125 25.390625 
Q 19.1875 24.515625 16.671875 22.0625 
Q 14.15625 19.625 14.15625 15.234375 
Q 14.15625 11.375 16.890625 8.9375 
Q 19.625 6.5 24.125 6.5 
Q 30.375 6.5 34.421875 10.890625 
Q 38.484375 15.28125 38.484375 21.921875 
L 38.484375 27.09375 
z
" id="MicrosoftYaHei-61"/>
     <path d="M 37.5 44.53125 
Q 35.109375 46.234375 30.90625 46.234375 
Q 25.34375 46.234375 21.71875 41.03125 
Q 18.109375 35.84375 18.109375 27.34375 
L 18.109375 0 
L 8.546875 0 
L 8.546875 54 
L 18.109375 54 
L 18.109375 43.015625 
L 18.3125 43.015625 
Q 22.40625 54.9375 32.46875 54.9375 
Q 35.75 54.9375 37.5 54.203125 
z
" id="MicrosoftYaHei-72"/>
     <path d="M 34.46875 0.53125 
Q 31.34375 -1.171875 26.03125 -1.171875 
Q 11.53125 -1.171875 11.53125 14.890625 
L 11.53125 46.09375 
L 2.25 46.09375 
L 2.25 54 
L 11.53125 54 
L 11.53125 67 
L 21.046875 70.015625 
L 21.046875 54 
L 34.46875 54 
L 34.46875 46.09375 
L 21.046875 46.09375 
L 21.046875 16.609375 
Q 21.046875 11.28125 22.84375 8.984375 
Q 24.65625 6.6875 28.859375 6.6875 
Q 32.078125 6.6875 34.46875 8.5 
z
" id="MicrosoftYaHei-74"/>
     <path d="M 52.546875 24.5625 
L 14.75 24.5625 
Q 14.984375 15.921875 19.46875 11.203125 
Q 23.96875 6.5 32.03125 6.5 
Q 41.109375 6.5 48.6875 12.3125 
L 48.6875 3.765625 
Q 41.546875 -1.265625 29.78125 -1.265625 
Q 18.0625 -1.265625 11.5 6.15625 
Q 4.9375 13.578125 4.9375 26.765625 
Q 4.9375 39.15625 12.140625 47.21875 
Q 19.34375 55.28125 30.03125 55.28125 
Q 40.625 55.28125 46.578125 48.46875 
Q 52.546875 41.65625 52.546875 29.390625 
z
M 42.96875 32.234375 
Q 42.921875 39.546875 39.5 43.546875 
Q 36.078125 47.5625 29.890625 47.5625 
Q 24.171875 47.5625 20 43.3125 
Q 15.828125 39.0625 14.75 32.234375 
z
" id="MicrosoftYaHei-65"/>
     <path d="M 5.515625 11.671875 
Q 12.75 6.453125 21.09375 6.453125 
Q 32.28125 6.453125 32.28125 13.765625 
Q 32.28125 16.890625 29.828125 18.921875 
Q 27.390625 20.953125 19.921875 23.734375 
Q 10.9375 27.34375 8.25 30.875 
Q 5.5625 34.421875 5.5625 39.453125 
Q 5.5625 46.625 11.640625 50.953125 
Q 17.71875 55.28125 26.609375 55.28125 
Q 33.5 55.28125 39.40625 52.875 
L 39.40625 43.65625 
Q 33.34375 47.5625 25.6875 47.5625 
Q 21.09375 47.5625 18.203125 45.5625 
Q 15.328125 43.5625 15.328125 40.28125 
Q 15.328125 37.0625 17.40625 35.25 
Q 19.484375 33.453125 26.609375 30.609375 
Q 35.640625 27.25 38.8125 23.625 
Q 42 20.015625 42 14.703125 
Q 42 7.28125 35.90625 3 
Q 29.828125 -1.265625 20.171875 -1.265625 
Q 11.765625 -1.265625 5.515625 1.90625 
z
" id="MicrosoftYaHei-73"/>
     <path d="M 7.375 73.046875 
Q 7.375 75.59375 9.109375 77.3125 
Q 10.84375 79.046875 13.375 79.046875 
Q 15.96875 79.046875 17.75 77.34375 
Q 19.53125 75.640625 19.53125 73.046875 
Q 19.53125 70.515625 17.75 68.828125 
Q 15.96875 67.140625 13.375 67.140625 
Q 10.796875 67.140625 9.078125 68.828125 
Q 7.375 70.515625 7.375 73.046875 
z
M 8.5 0 
L 8.5 54 
L 18.0625 54 
L 18.0625 0 
z
" id="MicrosoftYaHei-69"/>
     <path d="M 54.203125 0 
L 44.671875 0 
L 44.671875 30.71875 
Q 44.671875 47.359375 32.515625 47.359375 
Q 26.21875 47.359375 22.15625 42.671875 
Q 18.109375 37.984375 18.109375 30.8125 
L 18.109375 0 
L 8.546875 0 
L 8.546875 54 
L 18.109375 54 
L 18.109375 45.0625 
L 18.3125 45.0625 
Q 24.421875 55.28125 36.03125 55.28125 
Q 44.921875 55.28125 49.5625 49.578125 
Q 54.203125 43.890625 54.203125 33.015625 
z
" id="MicrosoftYaHei-6e"/>
     <path id="MicrosoftYaHei-20"/>
     <path d="M 45.84375 2.4375 
Q 39.65625 -1.265625 30.90625 -1.265625 
Q 19.1875 -1.265625 12.0625 6.25 
Q 4.9375 13.765625 4.9375 25.734375 
Q 4.9375 39.015625 12.625 47.140625 
Q 20.3125 55.28125 33.203125 55.28125 
Q 40.625 55.28125 45.90625 52.640625 
L 45.90625 43.171875 
Q 40.1875 47.359375 33.203125 47.359375 
Q 25 47.359375 19.84375 41.671875 
Q 14.703125 35.984375 14.703125 26.515625 
Q 14.703125 17.1875 19.5625 11.90625 
Q 24.421875 6.640625 32.671875 6.640625 
Q 39.65625 6.640625 45.84375 11.234375 
z
" id="MicrosoftYaHei-63"/>
     <path d="M 4.9375 26.421875 
Q 4.9375 39.796875 12.40625 47.53125 
Q 19.875 55.28125 32.671875 55.28125 
Q 44.828125 55.28125 51.734375 47.828125 
Q 58.640625 40.375 58.640625 27.25 
Q 58.640625 14.453125 51.265625 6.59375 
Q 43.890625 -1.265625 31.5 -1.265625 
Q 19.390625 -1.265625 12.15625 6.34375 
Q 4.9375 13.96875 4.9375 26.421875 
z
M 14.703125 26.703125 
Q 14.703125 17.390625 19.40625 12.015625 
Q 24.125 6.640625 32.078125 6.640625 
Q 40.28125 6.640625 44.578125 11.890625 
Q 48.875 17.140625 48.875 26.953125 
Q 48.875 36.8125 44.578125 42.078125 
Q 40.28125 47.359375 32.078125 47.359375 
Q 24.03125 47.359375 19.359375 41.84375 
Q 14.703125 36.328125 14.703125 26.703125 
z
" id="MicrosoftYaHei-6f"/>
     <path d="M 55.421875 0 
L 45.84375 0 
L 45.84375 8.984375 
L 45.65625 8.984375 
Q 39.75 -1.265625 27.296875 -1.265625 
Q 17.046875 -1.265625 10.984375 6.03125 
Q 4.9375 13.328125 4.9375 25.734375 
Q 4.9375 39.109375 11.765625 47.1875 
Q 18.609375 55.28125 29.640625 55.28125 
Q 40.671875 55.28125 45.65625 46.6875 
L 45.84375 46.6875 
L 45.84375 79.9375 
L 55.421875 79.9375 
z
M 45.90625 32.125 
Q 45.90625 38.625 41.625 42.984375 
Q 37.359375 47.359375 31.109375 47.359375 
Q 23.484375 47.359375 19.09375 41.671875 
Q 14.703125 35.984375 14.703125 26.171875 
Q 14.703125 17.140625 18.921875 11.890625 
Q 23.140625 6.640625 30.171875 6.640625 
Q 37.109375 6.640625 41.5 11.78125 
Q 45.90625 16.9375 45.90625 24.609375 
z
" id="MicrosoftYaHei-64"/>
    </defs>
    <g transform="translate(86.912074 35.472)scale(0.1 -0.1)">
     <use xlink:href="#MicrosoftYaHei-43"/>
     <use x="66.894531" xlink:href="#MicrosoftYaHei-61"/>
     <use x="122.167969" xlink:href="#MicrosoftYaHei-72"/>
     <use x="160.398438" xlink:href="#MicrosoftYaHei-74"/>
     <use x="197.654297" xlink:href="#MicrosoftYaHei-65"/>
     <use x="254.392578" xlink:href="#MicrosoftYaHei-73"/>
     <use x="300.681641" xlink:href="#MicrosoftYaHei-69"/>
     <use x="327.292969" xlink:href="#MicrosoftYaHei-61"/>
     <use x="382.566406" xlink:href="#MicrosoftYaHei-6e"/>
     <use x="444.1875" xlink:href="#MicrosoftYaHei-20"/>
     <use x="473.777344" xlink:href="#MicrosoftYaHei-63"/>
     <use x="523.923828" xlink:href="#MicrosoftYaHei-6f"/>
     <use x="587.498047" xlink:href="#MicrosoftYaHei-6f"/>
     <use x="651.072266" xlink:href="#MicrosoftYaHei-72"/>
     <use x="689.240234" xlink:href="#MicrosoftYaHei-64"/>
     <use x="753.205078" xlink:href="#MicrosoftYaHei-69"/>
     <use x="779.816406" xlink:href="#MicrosoftYaHei-6e"/>
     <use x="841.4375" xlink:href="#MicrosoftYaHei-61"/>
     <use x="896.710938" xlink:href="#MicrosoftYaHei-74"/>
     <use x="933.966797" xlink:href="#MicrosoftYaHei-65"/>
     <use x="990.705078" xlink:href="#MicrosoftYaHei-73"/>
    </g>
   </g>
  </g>
 </g>
</svg>
